<svg width="276" height="58" viewBox="0 0 276 58" fill="none" xmlns="http://www.w3.org/2000/svg">
<path d="M3.03409 46V11.0909H16.8068C19.4432 11.0909 21.6932 11.5625 23.5568 12.5057C25.4318 13.4375 26.858 14.7614 27.8352 16.4773C28.8239 18.1818 29.3182 20.1875 29.3182 22.4943C29.3182 24.8125 28.8182 26.8068 27.8182 28.4773C26.8182 30.1364 25.3693 31.4091 23.4716 32.2955C21.5852 33.1818 19.3011 33.625 16.6193 33.625H7.39773V27.6932H15.4261C16.8352 27.6932 18.0057 27.5 18.9375 27.1136C19.8693 26.7273 20.5625 26.1477 21.017 25.375C21.483 24.6023 21.7159 23.642 21.7159 22.4943C21.7159 21.3352 21.483 20.358 21.017 19.5625C20.5625 18.767 19.8636 18.1648 18.9205 17.7557C17.9886 17.3352 16.8125 17.125 15.392 17.125H10.4148V46H3.03409ZM21.8864 30.1136L30.5625 46H22.4148L13.9261 30.1136H21.8864ZM41.6591 30.8636V46H34.3977V19.8182H41.3182V24.4375H41.625C42.2045 22.9148 43.1761 21.7102 44.5398 20.8239C45.9034 19.9261 47.5568 19.4773 49.5 19.4773C51.3182 19.4773 52.9034 19.875 54.2557 20.6705C55.608 21.4659 56.6591 22.6023 57.4091 24.0795C58.1591 25.5455 58.5341 27.2955 58.5341 29.3295V46H51.2727V30.625C51.2841 29.0227 50.875 27.7727 50.0455 26.875C49.2159 25.9659 48.0739 25.5114 46.6193 25.5114C45.642 25.5114 44.7784 25.7216 44.0284 26.142C43.2898 26.5625 42.7102 27.1761 42.2898 27.983C41.8807 28.7784 41.6705 29.7386 41.6591 30.8636ZM71.723 46.4943C70.0526 46.4943 68.5639 46.2045 67.2571 45.625C65.9503 45.0341 64.9162 44.1648 64.1548 43.017C63.4048 41.858 63.0298 40.4148 63.0298 38.6875C63.0298 37.233 63.2969 36.0114 63.831 35.0227C64.3651 34.0341 65.0923 33.2386 66.0128 32.6364C66.9332 32.0341 67.9787 31.5795 69.1491 31.2727C70.331 30.9659 71.5696 30.75 72.8651 30.625C74.3878 30.4659 75.6151 30.3182 76.5469 30.1818C77.4787 30.0341 78.1548 29.8182 78.5753 29.5341C78.9957 29.25 79.206 28.8295 79.206 28.2727V28.1705C79.206 27.0909 78.8651 26.2557 78.1832 25.6648C77.5128 25.0739 76.5582 24.7784 75.3196 24.7784C74.0128 24.7784 72.973 25.0682 72.2003 25.6477C71.4276 26.2159 70.9162 26.9318 70.6662 27.7955L63.9503 27.25C64.2912 25.6591 64.9616 24.2841 65.9616 23.125C66.9616 21.9545 68.2514 21.0568 69.831 20.4318C71.4219 19.7955 73.2628 19.4773 75.3537 19.4773C76.8082 19.4773 78.2003 19.6477 79.5298 19.9886C80.8707 20.3295 82.0582 20.858 83.0923 21.5739C84.1378 22.2898 84.9616 23.2102 85.5639 24.3352C86.1662 25.4489 86.4673 26.7841 86.4673 28.3409V46H79.581V42.3693H79.3764C78.956 43.1875 78.3935 43.9091 77.6889 44.5341C76.9844 45.1477 76.1378 45.6307 75.1491 45.983C74.1605 46.3239 73.0185 46.4943 71.723 46.4943ZM73.8026 41.483C74.8707 41.483 75.8139 41.2727 76.6321 40.8523C77.4503 40.4205 78.0923 39.8409 78.5582 39.1136C79.0241 38.3864 79.2571 37.5625 79.2571 36.642V33.8636C79.0298 34.0114 78.7173 34.1477 78.3196 34.2727C77.9332 34.3864 77.4957 34.4943 77.0071 34.5966C76.5185 34.6875 76.0298 34.7727 75.5412 34.8523C75.0526 34.9205 74.6094 34.983 74.2116 35.0398C73.3594 35.1648 72.6151 35.3636 71.9787 35.6364C71.3423 35.9091 70.848 36.2784 70.4957 36.7443C70.1435 37.1989 69.9673 37.767 69.9673 38.4489C69.9673 39.4375 70.3253 40.1932 71.0412 40.7159C71.7685 41.2273 72.6889 41.483 73.8026 41.483ZM92.1009 46V19.8182H99.0213V24.4375H99.3281C99.8736 22.9034 100.783 21.6932 102.055 20.8068C103.328 19.9205 104.851 19.4773 106.624 19.4773C108.419 19.4773 109.947 19.9261 111.209 20.8239C112.47 21.7102 113.311 22.9148 113.732 24.4375H114.004C114.538 22.9375 115.504 21.7386 116.902 20.8409C118.311 19.9318 119.976 19.4773 121.896 19.4773C124.339 19.4773 126.322 20.2557 127.845 21.8125C129.379 23.358 130.146 25.5511 130.146 28.392V46H122.902V29.8239C122.902 28.3693 122.516 27.2784 121.743 26.5511C120.97 25.8239 120.004 25.4602 118.845 25.4602C117.527 25.4602 116.499 25.8807 115.76 26.7216C115.021 27.5511 114.652 28.6477 114.652 30.0114V46H107.612V29.6705C107.612 28.3864 107.243 27.3636 106.504 26.6023C105.777 25.8409 104.817 25.4602 103.624 25.4602C102.817 25.4602 102.089 25.6648 101.442 26.0739C100.805 26.4716 100.3 27.0341 99.9247 27.7614C99.5497 28.4773 99.3622 29.3182 99.3622 30.2841V46H92.1009Z" fill="white"/>
<path d="M158.636 27.0084C158.5 25.6334 159.67 20.6789 158.636 19.9175C157.602 19.1562 156.199 18.7755 154.426 18.7755C153.222 18.7755 152.205 18.9459 151.375 19.2869C150.545 19.6164 149.909 20.0766 149.466 20.6675C149.034 21.2584 148.818 21.9289 148.818 22.6789C148.795 23.3039 148.926 23.8494 149.21 24.3153C149.506 24.7812 149.909 25.1846 150.42 25.5255C150.932 25.855 151.523 26.1448 152.193 26.3948C152.864 26.6334 153.58 26.838 154.341 27.0084L157.477 27.7584C159 28.0994 160.398 28.5539 161.67 29.1221C162.943 29.6903 164.045 30.3891 164.977 31.2187C165.909 32.0482 166.631 33.0255 167.142 34.1505C167.665 35.2755 167.932 36.5653 167.943 38.0198C167.932 40.1562 167.386 42.0084 166.307 43.5766C165.239 45.1334 163.693 46.3437 161.67 47.2073C159.659 48.0596 157.233 48.4857 154.392 48.4857C151.574 48.4857 149.119 48.0539 147.028 47.1903C144.949 46.3266 143.324 45.0482 142.153 43.355C140.994 41.6505 136.057 36.1506 136 33.6392L148.818 35.7869C148.898 36.9574 147.886 39.1789 148.477 39.963C149.08 40.7357 149.881 41.321 150.881 41.7187C151.892 42.105 153.034 42.2982 154.307 42.2982C155.557 42.2982 156.642 42.1164 157.562 41.7528C158.494 41.3891 159.216 40.8834 159.727 40.2357C160.239 39.588 160.494 38.8437 160.494 38.0028C160.494 37.2187 160.261 36.5596 159.795 36.0255C159.341 35.4914 158.67 35.0369 157.784 34.6619C156.909 34.2869 155.835 33.9459 154.562 33.6391L150.761 32.6846C147.818 31.9687 145.705 31.0199 144 29.4971C142.295 27.9744 141.239 25.7528 141.25 23.1732C141.239 21.0596 141.801 19.213 142.937 17.6334C144.085 16.0539 145.659 14.8209 147.659 13.9346C149.659 13.0482 151.932 12.605 154.477 12.605C157.068 12.605 159.33 13.0482 161.261 13.9346C163.205 14.8209 164.716 16.0539 165.795 17.6334C166.875 19.213 169.466 22.5596 169.5 24.6392L158.636 27.0084Z" fill="url(#paint0_linear_24_246)"/>
<path d="M179.112 32.3778V47.5142H171.851V12.6051L187.038 9.51416L178.908 25.9517H179.214C179.805 24.4062 180.76 23.196 182.078 22.321C183.396 21.4346 185.05 20.9914 187.038 20.9914C188.856 20.9914 190.442 21.3892 191.794 22.1846C193.158 22.9687 194.214 24.0994 194.964 25.5767C195.726 27.0426 196.101 28.7983 196.089 30.8437V47.5142H188.828V32.1392C188.839 30.5255 188.43 29.2699 187.601 28.3721C186.783 27.4744 185.635 27.0255 184.158 27.0255C183.169 27.0255 182.294 27.2358 181.533 27.6562C180.783 28.0767 180.192 28.6903 179.76 29.4971C179.339 30.2926 179.124 31.2528 179.112 32.3778Z" fill="url(#paint1_linear_24_246)"/>
<path d="M209.27 48.0085C207.599 48.0085 206.111 47.7187 204.804 47.1392C203.497 46.5483 202.463 45.679 201.702 44.5312C200.952 43.3721 200.577 41.9289 200.577 40.2017C200.577 38.7471 200.844 37.5255 201.378 36.5369C201.912 35.5483 202.639 34.7528 203.56 34.1505C204.48 33.5483 205.526 33.0937 206.696 32.7869C207.878 32.4801 209.116 32.2642 210.412 32.1392C211.935 31.9801 213.162 31.8324 214.094 31.696C215.026 31.5483 215.702 31.3324 216.122 31.0483C216.543 30.7642 216.753 30.3437 216.753 29.7869V29.6846C216.753 28.6051 216.412 27.7699 215.73 27.1789C215.06 26.588 214.105 26.2926 212.866 26.2926C211.56 26.2926 210.52 26.5824 209.747 27.1619C208.974 27.7301 208.463 28.446 208.213 29.3096L201.497 28.7642C201.838 27.1733 202.508 25.7983 203.508 24.6392C204.508 23.4687 205.798 22.571 207.378 21.946C208.969 21.3096 210.81 20.9914 212.901 20.9914C214.355 20.9914 215.747 21.1619 217.077 21.5028C218.418 21.8437 219.605 22.3721 220.639 23.088C221.685 23.8039 222.508 24.7244 223.111 25.8494C223.713 26.963 224.014 28.2983 224.014 29.8551L227 47.4971L217.128 47.5142V43.8835H216.923C216.503 44.7017 215.94 45.4233 215.236 46.0483C214.531 46.6619 213.685 47.1449 212.696 47.4971C211.707 47.838 210.565 48.0085 209.27 48.0085ZM211.349 42.9971C212.418 42.9971 213.361 42.7869 214.179 42.3664C214.997 41.9346 215.639 41.3551 216.105 40.6278C216.571 39.9005 216.804 39.0767 216.804 38.1562V35.3778C216.577 35.5255 216.264 35.6619 215.866 35.7869C215.48 35.9005 215.043 36.0085 214.554 36.1108C214.065 36.2017 213.577 36.2869 213.088 36.3664C212.599 36.4346 212.156 36.4971 211.758 36.5539C210.906 36.6789 210.162 36.8778 209.526 37.1505C208.889 37.4233 208.395 37.7926 208.043 38.2585C207.69 38.713 207.514 39.2812 207.514 39.963C207.514 40.9517 207.872 41.7074 208.588 42.2301C209.315 42.7414 210.236 42.9971 211.349 42.9971Z" fill="url(#paint2_linear_24_246)"/>
<path d="M229.648 47.5142L226.5 19.5142L236.687 21.3324V25.9005H236.96C237.437 24.2755 238.239 23.0483 239.364 22.2187C240.489 21.3778 241.784 20.9574 243.25 20.9574C243.614 20.9574 244.006 20.9801 244.426 21.0255C244.847 21.071 245.216 21.1335 245.534 21.213V27.6562C245.193 27.5539 244.722 27.463 244.119 27.3835C243.517 27.3039 242.966 27.2642 242.466 27.2642C241.398 27.2642 240.443 27.4971 239.602 27.963C238.773 28.4176 238.114 29.0539 237.625 29.8721C237.148 30.6903 236.909 31.6335 236.909 32.7017V47.5142H229.648Z" fill="url(#paint3_linear_24_246)"/>
<path d="M260.001 47.1392C257.308 47.1392 254.99 46.5937 253.047 45.5028C251.115 44.4005 249.626 42.8437 248.581 40.8324C247.535 38.8096 247.013 36.4176 247.013 33.6562C247.013 30.963 247.535 28.5994 248.581 26.5653C249.626 24.5312 251.098 22.946 252.996 21.8096C254.905 20.6733 257.143 20.1051 259.712 20.1051C261.439 20.1051 263.047 20.3835 264.535 20.9403C266.035 21.4858 267.342 22.3096 268.456 23.4119C269.581 24.5142 270.456 25.9005 271.081 27.571C271.706 29.2301 272.018 31.1733 272.018 33.4005V35.3949H249.91V30.8949H265.183C265.183 29.8494 264.956 28.9233 264.501 28.1164C264.047 27.3096 263.416 26.6789 262.609 26.2244C261.814 25.7585 260.888 25.5255 259.831 25.5255C258.729 25.5255 257.751 25.7812 256.899 26.2926C256.058 26.7926 255.399 27.4687 254.922 28.321C254.445 29.1619 254.2 30.0994 254.189 31.1335V35.4119C254.189 36.7074 254.428 37.8267 254.905 38.7699C255.393 39.713 256.081 40.4403 256.967 40.9517C257.854 41.463 258.905 41.7187 260.121 41.7187C260.928 41.7187 261.666 41.6051 262.337 41.3778C263.007 41.1505 263.581 40.8096 264.058 40.3551C264.535 39.9005 264.058 37.3721 265.149 38.6846L275.5 37.3721C275.159 38.9858 270.825 42.1505 269.768 43.3551C268.723 44.5483 267.371 45.4801 265.712 46.1505C264.064 46.8096 262.16 47.1392 260.001 47.1392Z" fill="url(#paint4_linear_24_246)"/>
<defs>
<linearGradient id="paint0_linear_24_246" x1="178.5" y1="37.5142" x2="255" y2="40.0142" gradientUnits="userSpaceOnUse">
<stop stop-color="#EF4444"/>
<stop offset="0.484375" stop-color="#F59E0B"/>
<stop offset="1" stop-color="#10B981"/>
</linearGradient>
<linearGradient id="paint1_linear_24_246" x1="178.5" y1="37.5142" x2="255" y2="40.0142" gradientUnits="userSpaceOnUse">
<stop stop-color="#EF4444"/>
<stop offset="0.484375" stop-color="#F59E0B"/>
<stop offset="1" stop-color="#10B981"/>
</linearGradient>
<linearGradient id="paint2_linear_24_246" x1="178.5" y1="37.5142" x2="255" y2="40.0142" gradientUnits="userSpaceOnUse">
<stop stop-color="#EF4444"/>
<stop offset="0.484375" stop-color="#F59E0B"/>
<stop offset="1" stop-color="#10B981"/>
</linearGradient>
<linearGradient id="paint3_linear_24_246" x1="178.5" y1="37.5142" x2="255" y2="40.0142" gradientUnits="userSpaceOnUse">
<stop stop-color="#EF4444"/>
<stop offset="0.484375" stop-color="#F59E0B"/>
<stop offset="1" stop-color="#10B981"/>
</linearGradient>
<linearGradient id="paint4_linear_24_246" x1="178.5" y1="37.5142" x2="255" y2="40.0142" gradientUnits="userSpaceOnUse">
<stop stop-color="#EF4444"/>
<stop offset="0.484375" stop-color="#F59E0B"/>
<stop offset="1" stop-color="#10B981"/>
</linearGradient>
</defs>
</svg>
