<svg width="273" height="39" viewBox="0 0 273 39" fill="none" xmlns="http://www.w3.org/2000/svg">
<path d="M0.0340881 38.4716V3.5625H13.8068C16.4432 3.5625 18.6932 4.03409 20.5568 4.97727C22.4318 5.90909 23.858 7.23295 24.8352 8.94886C25.8239 10.6534 26.3182 12.6591 26.3182 14.9659C26.3182 17.2841 25.8182 19.2784 24.8182 20.9489C23.8182 22.608 22.3693 23.8807 20.4716 24.767C18.5852 25.6534 16.3011 26.0966 13.6193 26.0966H4.39773V20.1648H12.4261C13.8352 20.1648 15.0057 19.9716 15.9375 19.5852C16.8693 19.1989 17.5625 18.6193 18.017 17.8466C18.483 17.0739 18.7159 16.1136 18.7159 14.9659C18.7159 13.8068 18.483 12.8295 18.017 12.0341C17.5625 11.2386 16.8636 10.6364 15.9205 10.2273C14.9886 9.80682 13.8125 9.59659 12.392 9.59659H7.41477L12.392 38.9659L0.0340881 38.4716ZM18.8864 22.5852L27.5625 38.4716L18.8864 38.0966L10.9261 22.5852H18.8864Z" fill="white"/>
<path d="M39.9034 23.3352V38.4716H32.642L27.5625 5.9716L39.5625 12.2898V16.9091H39.8693C40.4489 15.3864 41.4205 14.1818 42.7841 13.2954C44.1477 12.3977 45.8011 11.9489 47.7443 11.9489C49.5625 11.9489 51.1477 12.3466 52.5 13.142C53.8523 13.9375 54.9034 15.0739 55.6534 16.5511C56.4034 18.017 56.7784 19.767 56.7784 21.8011L59.5 38.9716L46.5 38.9659L49.517 23.0966C49.5284 21.4943 49.1193 20.2443 48.2898 19.3466C47.4602 18.4375 46.3182 17.983 44.8636 17.983C43.8864 17.983 43.0227 18.1932 42.2727 18.6136C41.5341 19.0341 40.9546 19.6477 40.5341 20.4545C40.125 21.25 39.9148 22.2102 39.9034 23.3352Z" fill="white"/>
<path d="M68.723 38.9659C67.0526 38.9659 65.5639 38.6761 64.2571 38.0966C62.9503 37.5056 61.9162 36.6363 61.1548 35.4886C60.4048 34.3295 60.0298 32.8863 60.0298 31.159C60.0298 29.7045 60.2969 28.4829 60.831 27.4943C61.3651 26.5056 62.0923 25.7102 63.0128 25.1079C63.9332 24.5056 64.9787 24.0511 66.1492 23.7443C67.331 23.4375 68.5696 23.2215 69.8651 23.0965C71.3878 22.9375 72.6151 22.7897 73.5469 22.6534C74.4787 22.5056 75.1548 22.2897 75.5753 22.0056C75.9957 21.7215 76.206 21.3011 76.206 20.7443V20.642C76.206 19.5625 75.8651 18.7272 75.1832 18.1363C74.5128 17.5454 73.5582 17.25 72.3196 17.25C71.0128 17.25 69.973 17.5397 69.2003 18.1193C68.4276 18.6875 67.9162 19.4034 67.6662 20.267L60.9503 19.7215C61.2912 18.1306 61.9617 16.7556 62.9617 15.5965C63.9617 14.4261 65.2514 13.5284 66.831 12.9034C68.4219 12.267 70.2628 11.9488 72.3537 11.9488C73.8082 11.9488 75.2003 12.1193 76.5298 12.4602C77.8707 12.8011 79.0582 13.3295 80.0923 14.0454C81.1378 14.7613 81.9617 15.6818 82.5639 16.8068C83.1662 17.9204 83.4673 19.2556 83.4673 20.8125L87 38.9659L76.581 38.4716V34.8409H76.3764C75.956 35.659 75.3935 36.3806 74.6889 37.0056C73.9844 37.6193 73.1378 38.1022 72.1492 38.4545C71.1605 38.7954 70.0185 38.9659 68.723 38.9659ZM70.8026 33.9545C71.8707 33.9545 72.8139 33.7443 73.6321 33.3238C74.4503 32.892 75.0923 32.3125 75.5582 31.5852C76.0242 30.8579 76.2571 30.034 76.2571 29.1136V26.3352C76.0298 26.4829 75.7173 26.6193 75.3196 26.7443C74.9332 26.8579 74.4957 26.9659 74.0071 27.0681C73.5185 27.159 73.0298 27.2443 72.5412 27.3238C72.0526 27.392 71.6094 27.4545 71.2117 27.5113C70.3594 27.6363 69.6151 27.8352 68.9787 28.1079C68.3423 28.3806 67.848 28.75 67.4957 29.2159C67.1435 29.6704 66.9673 30.2386 66.9673 30.9204C66.9673 31.909 67.3253 32.6647 68.0412 33.1875C68.7685 33.6988 69.6889 33.9545 70.8026 33.9545Z" fill="white"/>
<path d="M91.1335 38.8767L85.5 9.37666L98.054 12.6948V17.3142H98.3608C98.9063 15.7801 99.8153 14.5698 101.088 13.6835C102.361 12.7971 103.884 12.3539 105.656 12.3539C107.452 12.3539 108.98 12.8028 110.241 13.7005C111.503 14.5869 112.344 15.7914 112.764 17.3142H113.037C113.571 15.8142 114.537 14.6153 115.935 13.7176C117.344 12.8085 119.009 12.3539 120.929 12.3539C123.372 12.3539 125.355 13.1323 126.878 14.6892C128.412 16.2346 129.179 18.4278 129.179 21.2687L132 38.8767H121.935V22.7005C121.935 21.246 121.548 20.1551 120.776 19.4278C120.003 18.7005 119.037 18.3369 117.878 18.3369C116.56 18.3369 115.531 18.7573 114.793 19.5982C114.054 20.4278 113.685 21.5244 113.685 22.888L115.935 38.8767H105L106.645 22.5471C106.645 21.263 106.276 20.2403 105.537 19.4789C104.81 18.7176 103.849 18.3369 102.656 18.3369C101.849 18.3369 101.122 18.5414 100.474 18.9505C99.8381 19.3482 99.3324 19.9107 98.9574 20.638C98.5824 21.3539 98.3949 22.1948 98.3949 23.1607V38.8767H91.1335Z" fill="white"/>
<path d="M155.636 17.4943C155.5 16.1193 156.67 11.1647 155.636 10.4034C154.602 9.64201 153.199 9.26133 151.426 9.26133C150.222 9.26133 149.205 9.43179 148.375 9.7727C147.545 10.1022 146.909 10.5625 146.466 11.1534C146.034 11.7443 145.818 12.4147 145.818 13.1647C145.795 13.7897 145.926 14.3352 146.21 14.8011C146.506 15.267 146.909 15.6704 147.42 16.0113C147.932 16.3409 148.523 16.6307 149.193 16.8807C149.864 17.1193 150.58 17.3238 151.341 17.4943L154.477 18.2443C156 18.5852 157.398 19.0397 158.67 19.6079C159.943 20.1761 161.045 20.875 161.977 21.7045C162.909 22.5341 163.631 23.5113 164.142 24.6363C164.665 25.7613 164.932 27.0511 164.943 28.5057C164.932 30.642 164.386 32.4943 163.307 34.0625C162.239 35.6193 160.693 36.8295 158.67 37.6932C156.659 38.5454 154.233 38.9716 151.392 38.9716C148.574 38.9716 146.119 38.5397 144.028 37.6761C141.949 36.8125 140.324 35.5341 139.153 33.8409C137.994 32.1363 133.057 26.6364 133 24.1251L145.818 26.2727C145.898 27.4432 144.886 29.6647 145.477 30.4488C146.08 31.2216 146.881 31.8068 147.881 32.2045C148.892 32.5909 150.034 32.7841 151.307 32.7841C152.557 32.7841 153.642 32.6022 154.562 32.2386C155.494 31.875 156.216 31.3693 156.727 30.7216C157.239 30.0738 157.494 29.3295 157.494 28.4886C157.494 27.7045 157.261 27.0454 156.795 26.5113C156.341 25.9772 155.67 25.5227 154.784 25.1477C153.909 24.7727 152.835 24.4318 151.562 24.125L147.761 23.1704C144.818 22.4545 142.705 21.5057 141 19.983C139.295 18.4602 138.239 16.2386 138.25 13.6591C138.239 11.5454 138.801 9.69883 139.937 8.11929C141.085 6.53974 142.659 5.30679 144.659 4.42042C146.659 3.53406 148.932 3.09088 151.477 3.09088C154.068 3.09088 156.33 3.53406 158.261 4.42042C160.205 5.30679 161.716 6.53974 162.795 8.11929C163.875 9.69883 166.466 13.0455 166.5 15.125L155.636 17.4943Z" fill="url(#paint0_linear_24_250)"/>
<path d="M176.112 22.8637V38H168.851V3.09092L184.038 0L175.908 16.4375H176.214C176.805 14.8921 177.76 13.6818 179.078 12.8068C180.396 11.9205 182.05 11.4773 184.038 11.4773C185.856 11.4773 187.442 11.875 188.794 12.6705C190.158 13.4546 191.214 14.5852 191.964 16.0625C192.726 17.5284 193.101 19.2841 193.089 21.3296V38H185.828V22.625C185.839 21.0114 185.43 19.7557 184.601 18.858C183.783 17.9602 182.635 17.5114 181.158 17.5114C180.169 17.5114 179.294 17.7216 178.533 18.1421C177.783 18.5625 177.192 19.1762 176.76 19.983C176.339 20.7784 176.124 21.7387 176.112 22.8637Z" fill="url(#paint1_linear_24_250)"/>
<path d="M206.27 38.4943C204.599 38.4943 203.111 38.2046 201.804 37.625C200.497 37.0341 199.463 36.1648 198.702 35.0171C197.952 33.858 197.577 32.4148 197.577 30.6875C197.577 29.233 197.844 28.0114 198.378 27.0227C198.912 26.0341 199.639 25.2387 200.56 24.6364C201.48 24.0341 202.526 23.5796 203.696 23.2727C204.878 22.9659 206.116 22.75 207.412 22.625C208.935 22.4659 210.162 22.3182 211.094 22.1818C212.026 22.0341 212.702 21.8182 213.122 21.5341C213.543 21.25 213.753 20.8296 213.753 20.2727V20.1705C213.753 19.0909 213.412 18.2557 212.73 17.6648C212.06 17.0739 211.105 16.7784 209.866 16.7784C208.56 16.7784 207.52 17.0682 206.747 17.6477C205.974 18.2159 205.463 18.9318 205.213 19.7955L198.497 19.25C198.838 17.6591 199.508 16.2841 200.508 15.125C201.508 13.9546 202.798 13.0568 204.378 12.4318C205.969 11.7955 207.81 11.4773 209.901 11.4773C211.355 11.4773 212.747 11.6477 214.077 11.9886C215.418 12.3296 216.605 12.858 217.639 13.5739C218.685 14.2898 219.508 15.2102 220.111 16.3352C220.713 17.4489 221.014 18.7841 221.014 20.3409L224 37.983L214.128 38V34.3693H213.923C213.503 35.1875 212.94 35.9091 212.236 36.5341C211.531 37.1477 210.685 37.6307 209.696 37.983C208.707 38.3239 207.565 38.4943 206.27 38.4943ZM208.349 33.483C209.418 33.483 210.361 33.2727 211.179 32.8523C211.997 32.4205 212.639 31.8409 213.105 31.1137C213.571 30.3864 213.804 29.5625 213.804 28.6421V25.8637C213.577 26.0114 213.264 26.1477 212.866 26.2727C212.48 26.3864 212.043 26.4943 211.554 26.5966C211.065 26.6875 210.577 26.7727 210.088 26.8523C209.599 26.9205 209.156 26.983 208.758 27.0398C207.906 27.1648 207.162 27.3637 206.526 27.6364C205.889 27.9091 205.395 28.2784 205.043 28.7443C204.69 29.1989 204.514 29.7671 204.514 30.4489C204.514 31.4375 204.872 32.1932 205.588 32.7159C206.315 33.2273 207.236 33.483 208.349 33.483Z" fill="url(#paint2_linear_24_250)"/>
<path d="M226.648 38L223.5 10L233.687 11.8182V16.3864H233.96C234.437 14.7614 235.239 13.5341 236.364 12.7046C237.489 11.8637 238.784 11.4432 240.25 11.4432C240.614 11.4432 241.006 11.4659 241.426 11.5114C241.847 11.5568 242.216 11.6193 242.534 11.6989V18.1421C242.193 18.0398 241.722 17.9489 241.119 17.8693C240.517 17.7898 239.966 17.75 239.466 17.75C238.398 17.75 237.443 17.983 236.602 18.4489C235.773 18.9034 235.114 19.5398 234.625 20.358C234.148 21.1762 233.909 22.1193 233.909 23.1875V38H226.648Z" fill="url(#paint3_linear_24_250)"/>
<path d="M257.001 37.625C254.308 37.625 251.99 37.0796 250.047 35.9887C248.115 34.8864 246.626 33.3296 245.581 31.3182C244.535 29.2955 244.013 26.9034 244.013 24.1421C244.013 21.4489 244.535 19.0852 245.581 17.0512C246.626 15.0171 248.098 13.4318 249.996 12.2955C251.905 11.1591 254.143 10.5909 256.712 10.5909C258.439 10.5909 260.047 10.8693 261.535 11.4262C263.035 11.9716 264.342 12.7955 265.456 13.8977C266.581 15 267.456 16.3864 268.081 18.0568C268.706 19.7159 269.018 21.6591 269.018 23.8864V25.8807H246.91V21.3807H262.183C262.183 20.3352 261.956 19.4091 261.501 18.6023C261.047 17.7955 260.416 17.1648 259.609 16.7102C258.814 16.2443 257.888 16.0114 256.831 16.0114C255.729 16.0114 254.751 16.2671 253.899 16.7784C253.058 17.2784 252.399 17.9546 251.922 18.8068C251.445 19.6477 251.2 20.5852 251.189 21.6193V25.8977C251.189 27.1932 251.428 28.3125 251.905 29.2557C252.393 30.1989 253.081 30.9262 253.967 31.4375C254.854 31.9489 255.905 32.2046 257.121 32.2046C257.928 32.2046 258.666 32.0909 259.337 31.8637C260.007 31.6364 260.581 31.2955 261.058 30.8409C261.535 30.3864 261.058 27.858 262.149 29.1705L272.5 27.858C272.159 29.4716 267.825 32.6364 266.768 33.8409C265.723 35.0341 264.371 35.9659 262.712 36.6364C261.064 37.2955 259.16 37.625 257.001 37.625Z" fill="url(#paint4_linear_24_250)"/>
<defs>
<linearGradient id="paint0_linear_24_250" x1="175.5" y1="28" x2="252" y2="30.5" gradientUnits="userSpaceOnUse">
<stop stop-color="#EF4444"/>
<stop offset="0.484375" stop-color="#F59E0B"/>
<stop offset="1" stop-color="#10B981"/>
</linearGradient>
<linearGradient id="paint1_linear_24_250" x1="175.5" y1="28" x2="252" y2="30.5" gradientUnits="userSpaceOnUse">
<stop stop-color="#EF4444"/>
<stop offset="0.484375" stop-color="#F59E0B"/>
<stop offset="1" stop-color="#10B981"/>
</linearGradient>
<linearGradient id="paint2_linear_24_250" x1="175.5" y1="28" x2="252" y2="30.5" gradientUnits="userSpaceOnUse">
<stop stop-color="#EF4444"/>
<stop offset="0.484375" stop-color="#F59E0B"/>
<stop offset="1" stop-color="#10B981"/>
</linearGradient>
<linearGradient id="paint3_linear_24_250" x1="175.5" y1="28" x2="252" y2="30.5" gradientUnits="userSpaceOnUse">
<stop stop-color="#EF4444"/>
<stop offset="0.484375" stop-color="#F59E0B"/>
<stop offset="1" stop-color="#10B981"/>
</linearGradient>
<linearGradient id="paint4_linear_24_250" x1="175.5" y1="28" x2="252" y2="30.5" gradientUnits="userSpaceOnUse">
<stop stop-color="#EF4444"/>
<stop offset="0.484375" stop-color="#F59E0B"/>
<stop offset="1" stop-color="#10B981"/>
</linearGradient>
</defs>
</svg>
